<svg id="SvgjsSvg1106" width="288" height="288" xmlns="http://www.w3.org/2000/svg" version="1.1" xmlns:xlink="http://www.w3.org/1999/xlink" xmlns:svgjs="http://svgjs.com/svgjs"><path id="SvgjsPath1111" d="M 144,0 C 5,0 0,5 0,144 0,283 5,288 144,288 283,288 288,283 288,144 288,5 283,0 144,0 Z" fill="#e5383b" transform="matrix(0.7916,0,0,0.7916,30.009600000000006,30.009600000000006)"></path><defs id="SvgjsDefs1107"></defs><g id="SvgjsG1108" transform="matrix(0.4652,0,0,0.4652,77.0112,77.0112)"><svg xmlns="http://www.w3.org/2000/svg" width="288" height="288" viewBox="0 0 24 24"><path d="M 5.0722656 0 C 2.2623763 0 0 2.2623763 0 5.0722656 L 0 18.927734 C 0 21.737624 2.2623763 24 5.0722656 24 L 18.927734 24 C 21.737624 24 24 21.737624 24 18.927734 L 24 5.0722656 C 24 2.2623763 21.737624 0 18.927734 0 L 5.0722656 0 z M 6.7558594 6.4121094 L 7.4101562 7.171875 C 6.3296592 8.101075 5.8241164 9.5322938 6.0839844 10.933594 L 5.1015625 11.115234 C 4.7770503 9.3654344 5.4065825 7.5725094 6.7558594 6.4121094 z M 12.980469 7.3378906 L 13.732422 8.6386719 L 14.482422 9.9394531 L 13.148438 10.708984 L 13.144531 10.708984 C 12.870812 10.860384 12.906612 10.926906 12.919922 11.066406 C 12.933232 11.205906 13.007812 11.339844 13.007812 11.339844 L 13.011719 11.349609 L 14.53125 13.982422 L 14.537109 13.994141 C 14.537109 13.994141 14.607133 14.109594 14.714844 14.183594 C 14.822555 14.257994 14.882488 14.328591 15.193359 14.150391 L 16.482422 13.40625 L 17.982422 16.005859 L 15.818359 17.255859 C 14.623877 17.945559 13.085514 17.523225 12.398438 16.328125 L 9.9003906 12.001953 C 9.2120916 10.810053 9.6243323 9.2759906 10.816406 8.5878906 L 12.980469 7.3378906 z M 7.953125 8.21875 L 8.7363281 8.8378906 C 8.357823 9.3173906 8.168485 9.9193969 8.203125 10.529297 L 7.2050781 10.583984 C 7.1565881 9.7303844 7.423412 8.88985 7.953125 8.21875 z " fill="#ffffff" class="color000 svgShape"></path></svg></g></svg>