<svg id="SvgjsSvg1082" width="288" height="288" xmlns="http://www.w3.org/2000/svg" version="1.1" xmlns:xlink="http://www.w3.org/1999/xlink" xmlns:svgjs="http://svgjs.com/svgjs"><path id="SvgjsPath1087" d="M 144,0 C 5,0 0,5 0,144 0,283 5,288 144,288 283,288 288,283 288,144 288,5 283,0 144,0 Z" fill="#ffffff" transform="matrix(0.7916,0,0,0.7916,30.009600000000006,30.009600000000006)"></path><defs id="SvgjsDefs1083"></defs><g id="SvgjsG1084" transform="matrix(0.4652,0,0,0.4652,77.01119693984985,77.01119693984985)"><svg xmlns="http://www.w3.org/2000/svg" width="288" height="288" viewBox="0 0 1792 1792"><path d="M1376 128q119 0 203.5 84.5t84.5 203.5v960q0 119-84.5 203.5t-203.5 84.5h-188v-595h199l30-232h-229v-148q0-56 23.5-84t91.5-28l122-1v-207q-63-9-178-9-136 0-217.5 80t-81.5 226v171h-200v232h200v595h-532q-119 0-203.5-84.5t-84.5-203.5v-960q0-119 84.5-203.5t203.5-84.5h960z" fill="#000000" class="color000 svgShape"></path></svg></g></svg>