<svg id="SvgjsSvg1100" width="288" height="288" xmlns="http://www.w3.org/2000/svg" version="1.1" xmlns:xlink="http://www.w3.org/1999/xlink" xmlns:svgjs="http://svgjs.com/svgjs"><path id="SvgjsPath1105" d="M 144,0 C 5,0 0,5 0,144 0,283 5,288 144,288 283,288 288,283 288,144 288,5 283,0 144,0 Z" fill="#e5383b" transform="matrix(0.7916,0,0,0.7916,30.009600000000006,30.009600000000006)"></path><defs id="SvgjsDefs1101"></defs><g id="SvgjsG1102" transform="matrix(0.4652,0,0,0.4652,77.0112,77.0112)"><svg xmlns="http://www.w3.org/2000/svg" width="288" height="288" viewBox="0 0 26 26"><path fill-rule="evenodd" d="M 6 0 C 2.676 0 0 2.6759904 0 6 L 0 20 C -1.1842379e-015 23.32401 2.676 26 6 26 L 20 26 C 23.324 26 26 23.32401 26 20 L 26 6 C 26 2.6759904 23.324 0 20 0 L 6 0 z M 5.6210938 8 L 5.6210938 8.0039062 L 5.640625 8.0195312 L 20.496094 8.0195312 A 0.50004788 0.50004788 0 0 1 20.998047 8.5195312 L 20.998047 8.8085938 L 20.998047 17.5 A 0.50004788 0.50004788 0 0 1 20.496094 18 L 5.5273438 18 A 0.50004788 0.50004788 0 0 1 5.0273438 17.5 L 5.0273438 8.8046875 L 5 8.7832031 L 5.0273438 8.7480469 L 5.0273438 8.515625 A 0.50004788 0.50004788 0 0 1 5.5273438 8.015625 L 5.609375 8.015625 L 5.6210938 8 z M 6.9023438 9.015625 L 13.019531 13.863281 L 19.128906 9.015625 L 6.9023438 9.015625 z M 6.0253906 9.5976562 L 6.0253906 17 L 19.996094 17 L 19.996094 9.6015625 L 13.330078 14.894531 A 0.50004788 0.50004788 0 0 1 12.710938 14.894531 L 6.0253906 9.5976562 z " fill="#ffffff" class="color000 svgShape"></path></svg></g></svg>