<svg id="SvgjsSvg1088" width="288" height="288" xmlns="http://www.w3.org/2000/svg" version="1.1" xmlns:xlink="http://www.w3.org/1999/xlink" xmlns:svgjs="http://svgjs.com/svgjs"><path id="SvgjsPath1093" d="M 144,0 C 5,0 0,5 0,144 0,283 5,288 144,288 283,288 288,283 288,144 288,5 283,0 144,0 Z" fill="#ffffff" transform="matrix(0.7916,0,0,0.7916,30.009600000000006,30.009600000000006)"></path><defs id="SvgjsDefs1089"></defs><g id="SvgjsG1090" transform="matrix(0.4652,0,0,0.4652,76.45279527683257,76.33927747707367)"><svg xmlns="http://www.w3.org/2000/svg" width="288" height="288" viewBox="0 0 40 39"><path d="M3171.954,199.651 L3145.757,199.651 C3142.298,199.651 3139.484,196.843 3139.484,193.391 L3139.484,167.26 C3139.484,163.808 3142.298,161 3145.757,161 L3171.954,161 C3175.412,161 3178.226,163.808 3178.226,167.26 L3178.226,193.392 C3178.226,196.844 3175.412,199.651 3171.954,199.651 Z M3168.95909,172.626437 C3168.01646,171.624223 3166.68822,171 3165.21658,171 C3162.35716,171 3160.03915,173.356611 3160.03915,176.263638 C3160.03915,176.643569 3160.07874,177.0141 3160.15396,177.371196 C3155.8786,177.101174 3152.14005,174.816243 3149.84604,171.43925 C3149.70538,172.058018 3149.63103,172.702594 3149.63103,173.364823 C3149.63103,175.527297 3150.42377,177.501535 3151.72992,179.003555 C3150.81877,178.815045 3149.96138,178.476181 3149.1839,178.013555 C3149.78016,180.300603 3151.28889,182.210123 3153.2899,183.314943 C3153.01082,183.343488 3152.7277,183.358107 3152.44123,183.358107 C3151.95811,183.358107 3151.48454,183.31653 3151.0238,183.236704 C3152.11423,184.906737 3153.76869,186.163151 3155.71085,186.725019 C3154.2461,188.001034 3152.34298,188.771853 3150.26278,188.771853 C3149.65241,188.771853 3149.05728,188.705489 3148.484,188.57947 C3150.71268,190.214866 3153.44985,191.178509 3156.40841,191.178509 C3163.54338,191.178509 3169.39077,185.573968 3169.92359,178.458946 C3170.2256,177.790743 3170.39401,177.047184 3170.39401,176.263638 C3170.39401,176.038849 3170.38015,175.817351 3170.35325,175.599979 C3171.33913,175.24709 3172.10384,174.417148 3172.37926,173.382739 C3171.70414,173.883371 3170.90537,174.221982 3170.03826,174.342327 C3170.00758,174.262802 3169.97505,174.18422 3169.94072,174.106637 C3170.81027,173.465429 3171.47644,172.554969 3171.82177,171.4951 C3171.02524,172.141223 3170.03748,172.552544 3168.95909,172.626437 Z" transform="translate(-3139 -161)" fill="#000000" class="color000 svgShape"></path></svg></g></svg>